<?xml version="1.0" encoding="UTF-8"?> <svg xmlns="http://www.w3.org/2000/svg" id="Слой_1" data-name="Слой 1" viewBox="0 0 48 48"> <defs> <style> .cls-1 { fill: red; } .cls-2 { fill: #fff; } </style> </defs> <path class="cls-1" d="M56.31-104.74c0-10.86,0-16.29,3.37-19.67s8.81-3.37,19.67-3.37h1.92c10.86,0,16.29,0,19.66,3.37s3.38,8.81,3.38,19.67v1.92c0,10.86,0,16.29-3.38,19.67s-8.8,3.37-19.66,3.37H79.35c-10.86,0-16.3,0-19.67-3.37S56.31-92,56.31-102.82Z" transform="translate(-56.31 127.78)"></path> <path class="cls-2" d="M97.54-112.43a4.5,4.5,0,0,0-3.17-3.16c-2.81-.77-14.06-.77-14.06-.77s-11.26,0-14.07.74a4.61,4.61,0,0,0-3.17,3.19,47.55,47.55,0,0,0-.74,8.65s0,5.86.74,8.65A4.5,4.5,0,0,0,66.24-92c2.84.77,14.07.77,14.07.77s11.25,0,14.06-.74a4.5,4.5,0,0,0,3.17-3.16,47.55,47.55,0,0,0,.74-8.65S98.31-109.61,97.54-112.43Z" transform="translate(-56.31 127.78)"></path> <path class="cls-1" d="M76.72-98.39l9.36-5.39-9.36-5.39Z" transform="translate(-56.31 127.78)"></path> </svg> 