<?xml version="1.0" encoding="UTF-8"?> <svg xmlns="http://www.w3.org/2000/svg" xmlns:xlink="http://www.w3.org/1999/xlink" id="_Слой_2" data-name="Слой 2" viewBox="0 0 48 48"><defs><style> .cls-1 { fill: #fff; } .cls-2 { fill: url(#_Безымянный_градиент); } </style><linearGradient id="_Безымянный_градиент" data-name="Безымянный градиент" x1="-70.1" y1="162.28" x2="-23.9" y2="122.07" gradientTransform="translate(72.3 167.3) scale(1 -1)" gradientUnits="userSpaceOnUse"><stop offset="0" stop-color="#fae100"></stop><stop offset=".15" stop-color="#fcb720"></stop><stop offset=".3" stop-color="#ff7950"></stop><stop offset=".5" stop-color="#ff1c74"></stop><stop offset="1" stop-color="#6c1cd1"></stop></linearGradient></defs><g id="_Слой_1-2" data-name="Слой 1"><g><path class="cls-2" d="M0,23.04C0,12.17,0,6.74,3.38,3.37S12.18,0,23.04,0h1.92c10.86,0,16.29,0,19.67,3.37s3.37,8.8,3.37,19.67v1.92c0,10.86,0,16.29-3.37,19.66s-8.81,3.38-19.67,3.38h-1.92c-10.86,0-16.29,0-19.66-3.38S0,35.82,0,24.96v-1.92Z"></path><path class="cls-1" d="M24,11.48c4.08,0,4.56,.02,6.17,.09,4.14,.19,6.07,2.15,6.26,6.26,.07,1.61,.09,2.09,.09,6.17s-.02,4.56-.09,6.17c-.19,4.1-2.12,6.07-6.26,6.26-1.61,.07-2.09,.09-6.17,.09s-4.56-.02-6.17-.09c-4.15-.19-6.07-2.16-6.26-6.26-.07-1.61-.09-2.09-.09-6.17s.02-4.56,.09-6.17c.19-4.11,2.12-6.07,6.26-6.26,1.61-.07,2.09-.09,6.17-.09Zm0-2.75c-4.15,0-4.67,.02-6.3,.09-5.55,.25-8.63,3.33-8.88,8.88-.08,1.63-.09,2.15-.09,6.3s.02,4.67,.09,6.3c.25,5.55,3.33,8.63,8.88,8.88,1.63,.07,2.15,.09,6.3,.09s4.67-.02,6.3-.09c5.54-.25,8.63-3.33,8.88-8.88,.08-1.63,.09-2.15,.09-6.3s-.02-4.67-.09-6.3c-.25-5.54-3.33-8.63-8.88-8.88-1.63-.08-2.15-.09-6.3-.09Zm0,7.43c-4.33,0-7.84,3.51-7.84,7.84s3.51,7.84,7.84,7.84,7.84-3.51,7.84-7.84-3.51-7.84-7.84-7.84Zm0,12.93c-2.81,0-5.09-2.28-5.09-5.09s2.28-5.09,5.09-5.09,5.09,2.28,5.09,5.09-2.28,5.09-5.09,5.09Zm8.15-15.08c-1.01,0-1.83,.82-1.83,1.83s.82,1.83,1.83,1.83,1.83-.82,1.83-1.83-.82-1.83-1.83-1.83Z"></path></g></g></svg> 